<svg width="19" height="19" viewBox="0 0 19 19" fill="none" xmlns="http://www.w3.org/2000/svg">
  <g fill="#FF5C16">
    <path d="M17.7557 17.5767L13.6631 16.3658L10.5767 18.1991L8.42334 18.1982L5.33517 16.3658L1.24437 17.5767L0 13.4028L1.24437 8.77052L0 4.85401L1.24437 0L7.63658 3.79453H11.3635L17.7557 0L19 4.85401L17.7557 8.77052L19 13.4028L17.7557 17.5767Z" />
    <path d="M1.24512 0L7.63733 3.79719L7.38311 6.40316L1.24512 0Z" />
    <path d="M5.33594 13.4048L8.14848 15.5336L5.33594 16.3661V13.4048Z" />
    <path d="M7.92339 9.88509L7.38283 6.4048L3.92269 8.77127V8.77216L3.9334 11.208L5.33654 9.88509H7.92339Z" />
    <path d="M17.7555 0L11.3633 3.79719L11.6168 6.40316L17.7555 0Z" />
    <path d="M13.665 13.4048L10.8525 15.5336L13.665 16.3661V13.4048Z" />
    <path d="M15.0787 8.77214V8.77125L11.6186 6.4048L11.078 9.88509H13.6658L15.0787 11.208V8.77214Z" />
    <path d="M5.33516 16.366L1.24437 17.5768L0 13.4048H5.33516V16.366Z" />
    <path d="M7.92237 9.88428L8.70378 14.9155L7.62087 12.118L3.92969 11.2082L5.33285 9.88428H7.92237Z" />
    <path d="M13.665 16.366L17.7558 17.5768L19.0002 13.4048H13.665V16.366Z" />
    <path d="M11.0774 9.88428L10.296 14.9155L11.3799 12.118L15.0711 11.2082L13.666 9.88428H11.0774Z" />
  </g>
  <g fill="#FF8D5D">
    <path d="M0 13.4028L1.24437 8.77051H3.92043L3.93024 11.2074L7.62142 12.1172L8.70434 14.9146L8.14772 15.5306L5.33518 13.4019L0 13.4028Z" />
    <path d="M19.0003 13.4028L17.7559 8.77051H15.0798L15.07 11.2074L11.3788 12.1172L10.2959 14.9146L10.8525 15.5306L13.6651 13.4019L19.0003 13.4028Z" />
    <path d="M11.3639 3.79492H9.50053H7.6371L7.38377 6.40088L8.70484 14.9123H10.2962L11.6182 6.40088L11.3639 3.79492Z" />
  </g>
  <g fill="#661800">
    <path d="M1.24437 0L0 4.85401L1.24437 8.77052H3.92043L7.38236 6.40316L1.24437 0Z" />
    <path d="M7.04498 10.6339H5.57174L4.76953 11.4151L7.61908 12.1175L7.04498 10.6339Z" />
    <path d="M17.7552 0L19 4.85401L17.7552 8.77052H15.0791L11.6172 6.40316L17.7552 0Z" />
    <path d="M11.951 10.6339H13.4242L14.2255 11.4153L11.3759 12.1178L11.951 10.6339Z" />
    <path d="M10.5755 16.5387L10.852 15.5327L10.2954 14.9166H8.70317L8.14655 15.5327L8.42308 16.5387H10.5755Z" />
  </g>
  <path d="M10.5762 16.5386V18.1999H8.42383V16.5386H10.5762Z" fill="#E7EBF6" />
  <path d="M5.33594 16.3643L8.42501 18.1992V16.5378L8.14849 15.5317L5.33594 16.3643Z" fill="#E7EBF6" />
  <path d="M13.6641 16.3643L10.575 18.1992V16.5378L10.8515 15.5317L13.6641 16.3643Z" fill="#E7EBF6" />
</svg>
